<svg width="114" height="18" viewBox="0 0 114 18" fill="none" xmlns="http://www.w3.org/2000/svg">
<g id="Group 17813">
<path id="Star 1" d="M8.80979 0.58541C8.86966 0.401148 9.13034 0.401148 9.19021 0.58541L10.9757 6.08065C11.0025 6.16306 11.0793 6.21885 11.1659 6.21885H16.944C17.1377 6.21885 17.2183 6.46677 17.0615 6.58065L12.387 9.9769C12.3169 10.0278 12.2876 10.1181 12.3143 10.2005L14.0999 15.6957C14.1597 15.88 13.9488 16.0332 13.7921 15.9193L9.11756 12.5231C9.04746 12.4722 8.95254 12.4722 8.88244 12.5231L4.20791 15.9193C4.05117 16.0332 3.84027 15.88 3.90014 15.6957L5.68566 10.2005C5.71243 10.1181 5.6831 10.0278 5.613 9.9769L0.938471 6.58065C0.781729 6.46677 0.862284 6.21885 1.05603 6.21885H6.83407C6.92071 6.21885 6.9975 6.16306 7.02428 6.08065L8.80979 0.58541Z" fill="#FBB616"/>
<path id="Star 2" d="M32.8098 0.58541C32.8697 0.401148 33.1303 0.401148 33.1902 0.58541L34.9757 6.08065C35.0025 6.16306 35.0793 6.21885 35.1659 6.21885H40.944C41.1377 6.21885 41.2183 6.46677 41.0615 6.58065L36.387 9.9769C36.3169 10.0278 36.2876 10.1181 36.3143 10.2005L38.0999 15.6957C38.1597 15.88 37.9488 16.0332 37.7921 15.9193L33.1176 12.5231C33.0475 12.4722 32.9525 12.4722 32.8824 12.5231L28.2079 15.9193C28.0512 16.0332 27.8403 15.88 27.9001 15.6957L29.6857 10.2005C29.7124 10.1181 29.6831 10.0278 29.613 9.9769L24.9385 6.58065C24.7817 6.46677 24.8623 6.21885 25.056 6.21885H30.8341C30.9207 6.21885 30.9975 6.16306 31.0243 6.08065L32.8098 0.58541Z" fill="#FBB616"/>
<path id="Star 3" d="M56.8098 0.58541C56.8697 0.401148 57.1303 0.401148 57.1902 0.58541L58.9757 6.08065C59.0025 6.16306 59.0793 6.21885 59.1659 6.21885H64.944C65.1377 6.21885 65.2183 6.46677 65.0615 6.58065L60.387 9.9769C60.3169 10.0278 60.2876 10.1181 60.3143 10.2005L62.0999 15.6957C62.1597 15.88 61.9488 16.0332 61.7921 15.9193L57.1176 12.5231C57.0475 12.4722 56.9525 12.4722 56.8824 12.5231L52.2079 15.9193C52.0512 16.0332 51.8403 15.88 51.9001 15.6957L53.6857 10.2005C53.7124 10.1181 53.6831 10.0278 53.613 9.9769L48.9385 6.58065C48.7817 6.46677 48.8623 6.21885 49.056 6.21885H54.8341C54.9207 6.21885 54.9975 6.16306 55.0243 6.08065L56.8098 0.58541Z" fill="#FBB616"/>
<path id="Star 4" d="M80.8098 0.58541C80.8697 0.401148 81.1303 0.401148 81.1902 0.58541L82.9757 6.08065C83.0025 6.16306 83.0793 6.21885 83.1659 6.21885H88.944C89.1377 6.21885 89.2183 6.46677 89.0615 6.58065L84.387 9.9769C84.3169 10.0278 84.2876 10.1181 84.3143 10.2005L86.0999 15.6957C86.1597 15.88 85.9488 16.0332 85.7921 15.9193L81.1176 12.5231C81.0475 12.4722 80.9525 12.4722 80.8824 12.5231L76.2079 15.9193C76.0512 16.0332 75.8403 15.88 75.9001 15.6957L77.6857 10.2005C77.7124 10.1181 77.6831 10.0278 77.613 9.9769L72.9385 6.58065C72.7817 6.46677 72.8623 6.21885 73.056 6.21885H78.8341C78.9207 6.21885 78.9975 6.16306 79.0243 6.08065L80.8098 0.58541Z" fill="#FBB616"/>
<path id="Star 5" d="M104.81 0.58541C104.87 0.401148 105.13 0.401148 105.19 0.58541L106.976 6.08065C107.002 6.16306 107.079 6.21885 107.166 6.21885H112.944C113.138 6.21885 113.218 6.46677 113.062 6.58065L108.387 9.9769C108.317 10.0278 108.288 10.1181 108.314 10.2005L110.1 15.6957C110.16 15.88 109.949 16.0332 109.792 15.9193L105.118 12.5231C105.047 12.4722 104.953 12.4722 104.882 12.5231L100.208 15.9193C100.051 16.0332 99.8403 15.88 99.9001 15.6957L101.686 10.2005C101.712 10.1181 101.683 10.0278 101.613 9.9769L96.9385 6.58065C96.7817 6.46677 96.8623 6.21885 97.056 6.21885H102.834C102.921 6.21885 102.998 6.16306 103.024 6.08065L104.81 0.58541Z" fill="#FBB616"/>
</g>
</svg>
